<svg xmlns="http://www.w3.org/2000/svg" width="91" height="34" viewBox="0 0 91 34" fill="none">
  <path d="M36.6424 12.9989C37.003 13.228 37.3872 13.4176 37.7883 13.5647C38.1051 13.6794 38.4388 13.7409 38.7756 13.7465C39.0092 13.7592 39.243 13.7246 39.4627 13.6445C39.6826 13.5644 39.8839 13.4406 40.0546 13.2805C40.2143 13.115 40.3384 12.9187 40.4193 12.7034C40.5004 12.4881 40.5364 12.2585 40.5252 12.0287C40.5252 11.2625 39.9241 10.387 38.722 9.40232L38.4023 9.14634C37.7619 8.65862 37.2136 8.06049 36.7831 7.38003C36.4698 6.82161 36.3101 6.19006 36.3201 5.54973C36.3042 5.09937 36.3775 4.6503 36.536 4.22849C36.6945 3.80668 36.935 3.4205 37.2435 3.09226C37.5372 2.77669 37.8939 2.52654 38.2905 2.35806C38.6872 2.18959 39.1147 2.10657 39.5456 2.1144C39.938 2.11348 40.3289 2.16163 40.7094 2.25776C41.0972 2.35858 41.471 2.50734 41.822 2.70061V4.449C41.5166 4.22845 41.1827 4.0502 40.8297 3.91911C40.5239 3.80665 40.2011 3.74777 39.8755 3.74504C39.6337 3.73375 39.392 3.77071 39.1645 3.85377C38.937 3.93682 38.7283 4.06432 38.5505 4.22885C38.3824 4.39898 38.2512 4.60214 38.1654 4.82551C38.0795 5.04888 38.0409 5.28763 38.0517 5.5267C38.0517 6.27418 38.6887 7.15818 39.9625 8.17871L40.2388 8.39117C40.8663 8.8636 41.4005 9.44866 41.8144 10.1165C42.1285 10.6986 42.2871 11.352 42.2747 12.0134C42.2903 12.4668 42.2138 12.9188 42.0504 13.342C41.8868 13.7652 41.6396 14.1508 41.3232 14.476C41.0055 14.7957 40.6252 15.0465 40.2062 15.2126C39.7873 15.3786 39.3386 15.4564 38.8882 15.441C38.515 15.4394 38.1438 15.3851 37.7858 15.2797C37.3835 15.1599 36.9959 14.996 36.6296 14.7909L36.6424 12.9989Z" fill="white"/>
  <path d="M38.9009 15.6817C38.5045 15.6801 38.1102 15.6232 37.7294 15.5127C37.3093 15.3873 36.9044 15.2156 36.5221 15.0008L36.3968 14.9316V12.5612L36.7702 12.7917C37.116 13.0105 37.4838 13.1924 37.8675 13.3343C38.7321 13.6338 39.4457 13.5314 39.8755 13.1065C40.0126 12.964 40.1187 12.7947 40.1874 12.6093C40.2561 12.4238 40.2857 12.2262 40.2745 12.0288C40.2745 11.3427 39.6964 10.5236 38.5582 9.59177L38.2359 9.31275C37.5741 8.80582 37.0078 8.18522 36.5631 7.47988C36.2299 6.8854 36.0595 6.21337 36.0694 5.53183C36.0559 5.05096 36.1372 4.57214 36.3089 4.12277C36.4804 3.67341 36.7389 3.26234 37.0695 2.9131C37.3877 2.5732 37.7736 2.30392 38.2023 2.12268C38.6311 1.94145 39.093 1.8523 39.5583 1.86099C40.3965 1.85395 41.2219 2.06664 41.9525 2.47792L42.0778 2.54704V4.90722L41.6941 4.63588C41.4075 4.4236 41.0934 4.25136 40.7605 4.12391C40.4813 4.02004 40.1861 3.96631 39.8882 3.9652C39.6776 3.95319 39.4667 3.98372 39.2681 4.05496C39.0695 4.12621 38.8872 4.23671 38.7321 4.37989C38.5875 4.52707 38.475 4.70275 38.4019 4.89578C38.3288 5.08882 38.2967 5.29497 38.3075 5.50112C38.3075 6.16668 38.9214 6.99351 40.1287 7.96114L40.3845 8.16849C41.0387 8.65883 41.5965 9.26641 42.0291 9.96039C42.3649 10.578 42.5349 11.2721 42.5228 11.975C42.5379 12.4603 42.455 12.9437 42.2792 13.3962C42.1034 13.8488 41.8383 14.2613 41.4998 14.6091C41.1634 14.957 40.7591 15.2318 40.3119 15.4163C39.8648 15.6009 39.3844 15.6912 38.9009 15.6817ZM36.8853 14.6423C37.1978 14.8079 37.526 14.9417 37.865 15.0417C38.1976 15.1386 38.5418 15.1895 38.8882 15.1928C39.3064 15.2097 39.7236 15.1389 40.113 14.985C40.5024 14.8312 40.8554 14.5977 41.1492 14.2993C41.4448 13.9985 41.6756 13.6402 41.8274 13.2465C41.9791 12.853 42.0487 12.4323 42.0317 12.0108C42.0436 11.3912 41.8946 10.7791 41.5995 10.2343C41.2012 9.59348 40.6877 9.03194 40.0853 8.57807C40.029 8.53711 39.9343 8.46287 39.8115 8.36559C38.4635 7.2879 37.8061 6.35611 37.8061 5.52415C37.7947 5.25249 37.8399 4.98143 37.9384 4.72807C38.037 4.47472 38.1871 4.24459 38.3791 4.05223C38.5789 3.8645 38.8142 3.71883 39.0713 3.62384C39.3283 3.52886 39.6017 3.48652 39.8755 3.49931C40.2298 3.50184 40.581 3.56505 40.914 3.68617C41.1444 3.77055 41.3669 3.87506 41.579 3.99848V2.84911C41.2839 2.69583 40.9724 2.57646 40.6506 2.49328C40.2892 2.40224 39.9181 2.35666 39.5454 2.35761C39.1458 2.3477 38.7485 2.42317 38.3803 2.57899C38.012 2.7348 37.6812 2.96739 37.4097 3.26123C37.1206 3.56438 36.8949 3.92232 36.7459 4.31401C36.597 4.7057 36.5279 5.12324 36.5426 5.54208C36.5347 6.1393 36.6837 6.72812 36.9749 7.24949C37.3918 7.90217 37.9199 8.4766 38.5351 8.94669L38.8575 9.21547C40.1363 10.2573 40.7503 11.1789 40.7503 12.0313C40.7613 12.2929 40.719 12.5541 40.6258 12.7989C40.5325 13.0436 40.3904 13.2668 40.2079 13.4547C39.6428 14.0126 38.7372 14.1586 37.6962 13.7976C37.4122 13.6962 37.1367 13.5721 36.8726 13.4265L36.8853 14.6423Z" fill="#E1AB4C"/>
  <path d="M38.9009 15.5844C38.5139 15.5836 38.1288 15.5277 37.7576 15.418C37.3433 15.2944 36.9449 15.1226 36.5707 14.906L36.4939 14.865V12.725L36.7191 12.8633C37.0711 13.0857 37.4458 13.2703 37.8369 13.4136C38.7244 13.7234 39.4893 13.6132 39.9445 13.1576C40.0905 13.006 40.2037 12.8259 40.2772 12.6287C40.3506 12.4314 40.3828 12.221 40.3717 12.0108C40.3717 11.2966 39.7809 10.4518 38.6196 9.49957L38.2999 9.23079C37.6465 8.73126 37.0863 8.12034 36.6449 7.42608C36.3227 6.84447 36.157 6.18908 36.164 5.52411C36.1493 5.05415 36.228 4.58594 36.3953 4.14657C36.5626 3.70718 36.8152 3.30533 37.1386 2.96425C37.4475 2.63321 37.8227 2.37098 38.2396 2.19456C38.6565 2.01814 39.1058 1.93151 39.5583 1.94031C39.9636 1.93999 40.3674 1.98986 40.7605 2.08878C41.1604 2.19217 41.5454 2.34614 41.9064 2.547L41.9832 2.58796V4.70495L41.7503 4.54112C41.4559 4.32843 41.1341 4.15623 40.7937 4.02916C40.5039 3.92155 40.1974 3.86525 39.8882 3.86276C39.6653 3.85175 39.4423 3.88523 39.2324 3.96125C39.0225 4.03729 38.8298 4.15435 38.6656 4.30562C38.5113 4.46143 38.3913 4.64783 38.3133 4.85283C38.2354 5.05784 38.2011 5.27691 38.2129 5.49595C38.2129 6.19224 38.837 7.04468 40.0673 8.03022C40.185 8.12493 40.2744 8.19405 40.3384 8.24013C40.9825 8.72603 41.5307 9.32758 41.955 10.0141C42.2821 10.6178 42.4479 11.2959 42.4359 11.9826C42.4502 12.4543 42.3695 12.9241 42.1985 13.3639C42.0276 13.8036 41.77 14.2045 41.4408 14.5425C41.1122 14.882 40.7168 15.1499 40.2798 15.3293C39.8426 15.5085 39.3732 15.5954 38.9009 15.5844ZM36.7882 14.6884C37.1209 14.8712 37.4725 15.0171 37.8369 15.1236C38.1827 15.2246 38.5407 15.2772 38.9009 15.2797C39.3317 15.2944 39.761 15.2201 40.1618 15.0615C40.5627 14.903 40.9267 14.6636 41.2312 14.3582C41.5335 14.0466 41.7699 13.6773 41.9264 13.2723C42.0828 12.8672 42.1561 12.4346 42.1418 12.0006C42.1528 11.3648 41.9996 10.7369 41.6967 10.1779C41.2936 9.5263 40.7732 8.95517 40.162 8.49355C40.1006 8.45003 40.0059 8.37835 39.8857 8.28109C38.5633 7.22129 37.9187 6.31511 37.9187 5.51388C37.9078 5.25529 37.9504 4.99726 38.0437 4.75588C38.137 4.51452 38.279 4.295 38.461 4.11107C38.6528 3.93312 38.8779 3.79492 39.1232 3.70442C39.3687 3.61391 39.6295 3.5729 39.8908 3.58374C40.234 3.58591 40.5743 3.64828 40.896 3.76805C41.1738 3.86933 41.4397 4.00067 41.6889 4.1597V2.77995C41.0346 2.42932 40.3031 2.24804 39.5609 2.25261C39.1486 2.24428 38.7391 2.32294 38.3593 2.48349C37.9794 2.64403 37.6375 2.88286 37.356 3.1844C37.0602 3.49769 36.8292 3.8663 36.6759 4.2691C36.5228 4.6719 36.4505 5.10099 36.4632 5.53179C36.4551 6.14577 36.6076 6.7512 36.9057 7.28785C37.3289 7.95023 37.8649 8.53331 38.4891 9.01064L38.8114 9.26663C40.0622 10.2906 40.6684 11.1865 40.6684 12.0057C40.6799 12.2548 40.6406 12.5036 40.5527 12.7369C40.4647 12.9703 40.33 13.1831 40.1569 13.3624C39.6197 13.8923 38.7424 14.028 37.7448 13.6798C37.4144 13.5614 37.0959 13.4123 36.7933 13.2344L36.7882 14.6884Z" fill="#E1AB4C"/>
  <path d="M38.9009 15.8302C38.4906 15.8283 38.0824 15.7688 37.6886 15.6535C37.2579 15.5302 36.8425 15.3585 36.4505 15.1415L36.2485 15.0289V12.2976L36.847 12.6635C37.1836 12.8776 37.542 13.0553 37.9162 13.1935C38.6964 13.4649 39.3716 13.3931 39.7707 13.0015C39.8943 12.8731 39.9899 12.7203 40.0511 12.5527C40.1123 12.3852 40.1379 12.2067 40.1262 12.0287C40.1262 11.399 39.5532 10.5978 38.4661 9.70694L38.1413 9.45096C37.4663 8.93232 36.8886 8.29787 36.4352 7.57714C36.0901 6.95973 35.9137 6.26222 35.9237 5.55486C35.91 5.05546 35.995 4.5583 36.1736 4.0918C36.3522 3.62531 36.6211 3.19866 36.9647 2.83628C37.2957 2.48034 37.698 2.19831 38.1454 2.00864C38.5928 1.81895 39.0752 1.7259 39.5609 1.73554C40.4239 1.72965 41.2736 1.94842 42.0266 2.37038L42.2288 2.48302V5.2144L41.6123 4.77921C41.3357 4.58016 41.0339 4.41916 40.7145 4.30053C39.9778 4.04453 39.2488 4.12388 38.837 4.52323C38.7045 4.65694 38.6021 4.81751 38.5368 4.99414C38.4715 5.17077 38.4449 5.35934 38.4584 5.54717C38.4584 5.97211 38.7654 6.7247 40.2234 7.89201L40.4791 8.09423C41.1518 8.60126 41.7235 9.22987 42.1648 9.94757C42.5126 10.5871 42.6888 11.3059 42.6764 12.0339C42.6921 12.5384 42.6059 13.0409 42.4225 13.5112C42.2392 13.9815 41.9628 14.4098 41.6097 14.7703C41.2547 15.1231 40.8311 15.3992 40.3652 15.5815C39.8993 15.7637 39.401 15.8484 38.9009 15.8302ZM37.0337 14.5502C37.3132 14.6927 37.6052 14.8093 37.906 14.8983C38.2295 14.9916 38.5642 15.0398 38.9009 15.0417C39.2992 15.0557 39.696 14.9877 40.067 14.842C40.4379 14.6963 40.7749 14.4757 41.0573 14.1944C41.3367 13.9052 41.5551 13.5625 41.6993 13.1869C41.8434 12.8112 41.9104 12.4104 41.8962 12.0083C41.9076 11.414 41.7657 10.8268 41.4844 10.3034C41.0942 9.67998 40.5931 9.13338 40.0059 8.69068C39.9548 8.65485 39.8577 8.5806 39.7323 8.47822C38.346 7.36979 37.686 6.40216 37.686 5.52158C37.6745 5.23039 37.7233 4.93998 37.8293 4.6686C37.9355 4.39722 38.0965 4.15076 38.3024 3.9447C38.5158 3.74375 38.7671 3.58747 39.0416 3.48505C39.3162 3.38262 39.6083 3.33612 39.9011 3.34826C40.2721 3.35023 40.64 3.41693 40.9881 3.54536C41.1483 3.60285 41.3047 3.67039 41.4562 3.74759V2.93868C41.195 2.81121 40.9216 2.71003 40.6403 2.63662C40.2907 2.54892 39.9316 2.50506 39.5711 2.50607C39.1918 2.49859 38.8152 2.57107 38.4657 2.71882C38.1163 2.86656 37.8018 3.08625 37.5427 3.36361C36.9901 3.95165 36.6929 4.73507 36.7166 5.54206C36.7088 6.11393 36.8508 6.67787 37.1284 7.1778C37.5396 7.81517 38.059 8.37568 38.6631 8.83404L38.9854 9.10282C40.2949 10.1728 40.9319 11.1302 40.9319 12.0287C40.9438 12.3114 40.8979 12.5935 40.7967 12.8577C40.6955 13.1218 40.5413 13.3625 40.3436 13.5647C39.722 14.179 38.75 14.3147 37.6808 13.9435C37.4664 13.8676 37.257 13.7779 37.0543 13.6747L37.0337 14.5502Z" fill="white"/>
  <path d="M45.3441 15.2772V2.28329H47.0961V7.22382H50.2244V2.28329H51.9765V15.2772H50.2244V8.85957H47.0961V15.2772H45.3441Z" fill="white"/>
  <path d="M52.2222 15.5204H49.9816V9.10535H47.3393V15.5204H45.0986V2.04013H47.3393V6.97811H49.9816V2.04013H52.2222V15.5204ZM50.4701 15.0314H51.7336V2.52908H50.4701V7.46704H46.8507V2.52908H45.5871V15.0314H46.8507V8.61641H50.4701V15.0314Z" fill="#E1AB4C"/>
  <path d="M52.125 15.4257H50.0787V9.00807H47.2421V15.4257H45.1958V2.14508H47.2421V7.08561H50.0787V2.14508H52.125V15.4257ZM50.3729 15.1287H51.8232V2.43179H50.3652V7.36975H46.9479V2.43179H45.4925V15.1287H46.9479V8.71112H50.3729V15.1287Z" fill="#E1AB4C"/>
  <path d="M52.3705 15.6688H49.833V9.25382H47.4875V15.6688H44.9528V1.8891H47.4875V6.82963H49.833V1.8891H52.3705V15.6688ZM50.6183 14.8854H51.5852V2.67497H50.6183V7.6155H46.7074V2.67497H45.7354V14.8854H46.7074V8.46793H50.6235L50.6183 14.8854Z" fill="white"/>
  <path d="M55.6215 15.2772V2.28329H60.814V3.84993H57.3711V7.71275H60.5199V9.26148H57.3711V13.6645H60.814V15.2848L55.6215 15.2772Z" fill="white"/>
  <path d="M61.057 15.5204H55.3759V2.04013H61.057V4.08802H57.6166V7.46192H60.7756V9.50981H57.6166V13.4085H61.057V15.5204ZM55.8645 15.0314H60.5684V13.9025H57.1281V9.01575H60.2768V7.95597H57.1281V3.60422H60.5684V2.52908H55.8645V15.0314Z" fill="#E1AB4C"/>
  <path d="M60.9623 15.4257H55.4732V2.14508H60.9623V4.00866H57.5195V7.57454H60.6682V9.41764H57.5195V13.5134H60.9623V15.4257ZM55.7674 15.1287H60.6657V13.8052H57.2254V9.11302H60.3716V7.86125H57.2254V3.70148H60.6657V2.42155H55.7674V15.1287Z" fill="#E1AB4C"/>
  <path d="M61.2054 15.6688H55.2277V1.8891H61.2054V4.23905H57.7651V7.31087H60.9138V9.64291H57.7651V13.2549H61.2054V15.6688ZM56.0129 14.8854H60.4227V14.0484H56.9798V8.86727H60.1286V8.09931H56.9798V3.45828H60.4227V2.67497H56.0129V14.8854Z" fill="white"/>
  <path d="M64.0114 15.2772V2.28329H65.6355L69.0759 11.3068V2.28329H70.7386V15.2772H69.0887L65.6662 6.18197V15.2772H64.0114Z" fill="white"/>
  <path d="M70.9789 15.5204H68.9199L65.9092 7.5208V15.5178H63.7657V2.04013H65.7966L68.8278 9.97571V2.04013H70.9789V15.5204ZM69.2574 15.0314H70.4955V2.52908H69.3214V12.6405L65.4616 2.52908H64.2544V15.0314H65.4207V4.84063L69.2574 15.0314Z" fill="#E1AB4C"/>
  <path d="M70.8817 15.4257H68.9863L68.9505 15.3284L65.8121 6.99346V15.4257H63.863V2.14508H65.7302L65.7685 2.23979L68.9223 10.5158V2.14508H70.8817V15.4257ZM69.191 15.1287H70.5875V2.43179H69.2166V12.1106L65.5256 2.43179H64.1571V15.1287H65.5153V5.36794L69.191 15.1287Z" fill="#E1AB4C"/>
  <path d="M71.1272 15.6688H68.8251L68.7305 15.4128L66.0651 8.33226V15.6662H63.6276V1.8891H65.8913L68.6716 9.17701V1.8891H71.1195L71.1272 15.6688ZM69.3597 14.8854H70.3419V2.67497H69.4723V13.4264L65.3669 2.67497H64.4103V14.8854H65.28V4.02658L69.3597 14.8854Z" fill="white"/>
  <path d="M75.8364 15.2772V3.90369H73.4268V2.28329H80.0056V3.90369H77.5961V15.2772H75.8364Z" fill="white"/>
  <path d="M77.8416 15.5204H75.5908V4.1469H73.1812V2.04013H80.2512V4.1469H77.8416V15.5204ZM76.0793 15.0314H77.3582V3.65797H79.7677V2.52908H73.6698V3.65797H76.0793V15.0314Z" fill="#E1AB4C"/>
  <path d="M77.7444 15.4257H75.6981V4.05218H73.2886V2.14508H80.164V4.06241H77.7546L77.7444 15.4257ZM75.9846 15.1287H77.4476V3.75524H79.8597V2.43179H73.5649V3.75524H75.9768L75.9846 15.1287Z" fill="#E1AB4C"/>
  <path d="M77.9874 15.6688H75.4448V4.29536H73.0328V1.8891H80.3995V4.2928H77.9874V15.6688ZM76.2275 14.8854H77.2046V3.51204H79.6142V2.67497H73.8207V3.51204H76.2301L76.2275 14.8854Z" fill="white"/>
  <path d="M82.6069 11.8162V2.28329H84.3334V11.957C84.3334 12.5816 84.4716 13.0398 84.7503 13.3367C85.1143 13.6254 85.565 13.7825 86.0293 13.7825C86.4937 13.7825 86.9443 13.6254 87.3083 13.3367C87.5819 13.0398 87.7226 12.5816 87.7226 11.957V2.28329H89.4543V11.8162C89.4543 13.0723 89.1806 13.9895 88.6333 14.568C88.0832 15.1492 87.2188 15.4384 86.0319 15.4384C84.845 15.4384 83.9856 15.1492 83.4306 14.568C82.8755 13.987 82.6069 13.0731 82.6069 11.8162Z" fill="white"/>
  <path d="M86.0319 15.6816C84.7811 15.6816 83.8449 15.3642 83.2541 14.7371C82.6632 14.1099 82.3639 13.132 82.3639 11.8162V2.04013H84.5764V11.957C84.5764 12.5125 84.6966 12.9221 84.9295 13.1704C85.0784 13.3038 85.253 13.4053 85.4426 13.4687C85.6321 13.5321 85.8327 13.556 86.0319 13.539C86.2303 13.5564 86.4301 13.5327 86.6189 13.4692C86.8077 13.4058 86.9815 13.3041 87.1293 13.1704C87.3594 12.9144 87.4771 12.5125 87.4771 11.957V2.04013H89.6998V11.8162C89.6998 13.132 89.4006 14.1201 88.8097 14.7371C88.2188 15.3539 87.2826 15.6816 86.0319 15.6816ZM82.8525 2.52908V11.8162C82.8525 13.004 83.1083 13.8641 83.6071 14.4017C84.1059 14.9392 84.9192 15.1927 86.0319 15.1927C87.1445 15.1927 87.958 14.9367 88.4542 14.4017C88.9504 13.8667 89.2215 13.0015 89.2215 11.8162V2.52908H87.9656V11.957C87.9656 12.6405 87.8045 13.1602 87.4873 13.4929C87.0761 13.8291 86.5615 14.0129 86.0306 14.0129C85.4996 14.0129 84.9851 13.8291 84.5739 13.4929C84.2516 13.1525 84.0879 12.6328 84.0879 11.957V2.52908H82.8525Z" fill="#E1AB4C"/>
  <path d="M86.0318 15.5844C84.8092 15.5844 83.8961 15.2772 83.323 14.6705C82.7501 14.0637 82.4611 13.1064 82.4611 11.8162V2.14508H84.4817V11.9673C84.4817 12.5483 84.6071 12.9784 84.8578 13.2472C85.1938 13.5054 85.6057 13.6454 86.0292 13.6454C86.4529 13.6454 86.8647 13.5054 87.2007 13.2472C87.4566 12.9784 87.5742 12.5483 87.5742 11.9673V2.14508H89.6026V11.8265C89.6026 13.1064 89.3136 14.0792 88.7405 14.6807C88.1676 15.2823 87.2544 15.5844 86.0318 15.5844ZM82.7552 2.43179V11.8162C82.7552 13.0296 83.0109 13.9204 83.5379 14.4682C84.0648 15.0161 84.8935 15.2899 86.0318 15.2899C87.17 15.2899 88.009 15.0135 88.5258 14.4682C89.0424 13.923 89.3084 13.0296 89.3084 11.8162V2.43179H87.8684V11.957C87.8684 12.6148 87.7175 13.1115 87.4181 13.4367C87.0257 13.7553 86.5358 13.9292 86.0306 13.9292C85.5252 13.9292 85.0353 13.7553 84.6429 13.4367C84.3386 13.1115 84.1851 12.615 84.1851 11.9545V2.43179H82.7552Z" fill="#E1AB4C"/>
  <path d="M86.0319 15.83C84.7376 15.83 83.7683 15.4973 83.1467 14.8394C82.5251 14.1815 82.2156 13.1729 82.2156 11.8162V1.8891H84.7249V11.9545C84.7249 12.4665 84.8297 12.8453 85.0369 13.0655C85.1722 13.184 85.3302 13.2737 85.5013 13.3291C85.6724 13.3846 85.8529 13.4046 86.0319 13.388C86.21 13.4051 86.3897 13.3856 86.56 13.3305C86.7303 13.2755 86.8874 13.1862 87.0218 13.068C87.2264 12.8453 87.3288 12.4716 87.3288 11.9545V1.8891H89.8483V11.8137C89.8483 13.1704 89.5337 14.1866 88.9172 14.8369C88.3007 15.4871 87.3236 15.83 86.0319 15.83ZM83.0008 2.67497V11.8162C83.0008 12.9657 83.2413 13.8001 83.7145 14.2993C84.1877 14.7985 84.9627 15.0443 86.0319 15.0443C87.1011 15.0443 87.8787 14.7882 88.3468 14.2993C88.8149 13.8103 89.063 12.9631 89.063 11.8162V2.67497H88.1141V11.957C88.1141 12.679 87.9401 13.2369 87.6024 13.603C87.1637 13.971 86.6094 14.1725 86.0371 14.1725C85.4646 14.1725 84.9104 13.971 84.4716 13.603C84.1238 13.2318 83.9472 12.679 83.9472 11.9545V2.67497H83.0008Z" fill="white"/>
  <path d="M42.3412 32.8634C42.063 33.0131 41.7675 33.1283 41.4614 33.2065C41.1522 33.2804 40.8353 33.3174 40.5175 33.3165C39.1909 33.3165 38.1984 32.7738 37.5401 31.6885C36.8819 30.603 36.5529 28.9656 36.5529 26.7761C36.5529 24.5439 36.9041 22.8561 37.6066 21.7126C37.9192 21.1685 38.375 20.7206 38.9243 20.4177C39.4737 20.1149 40.0955 19.9687 40.7221 19.995C41.0092 19.9928 41.2957 20.022 41.5764 20.0821C41.8404 20.1405 42.0975 20.2264 42.3439 20.3381V22.0019C42.115 21.8863 41.875 21.7946 41.6276 21.7281C41.4176 21.6699 41.2009 21.6398 40.983 21.6384C40.5592 21.6165 40.1384 21.721 39.774 21.9389C39.4097 22.1567 39.1182 22.4781 38.9367 22.8621C38.5087 23.6778 38.2956 24.9757 38.2973 26.7556C38.2973 28.4178 38.5003 29.6474 38.906 30.4443C39.0638 30.8092 39.3274 31.1184 39.6625 31.332C39.9976 31.5454 40.3889 31.6536 40.7861 31.6423C41.0375 31.6409 41.2869 31.5995 41.5253 31.5194C41.8073 31.4264 42.0784 31.3028 42.3335 31.1509L42.3412 32.8634Z" fill="#E1AB4C"/>
  <path d="M40.5176 33.5674C39.8772 33.596 39.2414 33.4481 38.6794 33.1398C38.1174 32.8315 37.6507 32.3746 37.3304 31.819C36.6526 30.7003 36.3073 29.0031 36.3073 26.7812C36.3073 24.5157 36.6757 22.7699 37.3969 21.5898C37.732 21.0101 38.2187 20.5328 38.8046 20.2094C39.3905 19.886 40.0535 19.7286 40.7221 19.7544C41.0273 19.7538 41.3317 19.7855 41.6302 19.8491C41.9105 19.9114 42.1832 20.0041 42.4436 20.1256L42.5868 20.1896V22.4064L42.2313 22.2297C42.018 22.122 41.7942 22.0363 41.5637 21.9737C41.3735 21.9221 41.1775 21.8945 40.9805 21.8919C40.603 21.8721 40.2283 21.9656 39.9044 22.1604C39.5803 22.3551 39.3218 22.6422 39.1618 22.9849C38.7552 23.7529 38.548 25.0327 38.548 26.7658C38.548 28.3811 38.7449 29.5817 39.1311 30.3496C39.2694 30.6735 39.502 30.9481 39.7986 31.1377C40.0952 31.3271 40.442 31.4228 40.7937 31.412C41.0189 31.4113 41.2424 31.375 41.4562 31.3044C41.7228 31.2137 41.9798 31.0971 42.2236 30.9563L42.5893 30.7464V33.0221L42.4589 33.0912C41.8647 33.4161 41.197 33.5827 40.5201 33.575L40.5176 33.5674ZM40.7221 20.2432C40.1359 20.2173 39.5538 20.3542 39.0406 20.6389C38.5272 20.9235 38.1027 21.3447 37.8139 21.8561C37.1386 22.9594 36.7907 24.6206 36.7907 26.7939C36.7907 28.9264 37.1104 30.5365 37.7422 31.5809C38.374 32.6253 39.2769 33.0912 40.5124 33.0912C40.8106 33.0923 41.1077 33.057 41.3974 32.9863C41.6376 32.9256 41.8708 32.8398 42.0932 32.7302V31.5758C41.9341 31.6527 41.7701 31.7185 41.6021 31.7729C41.3399 31.861 41.0652 31.906 40.7886 31.906C40.3464 31.9182 39.9105 31.7981 39.5368 31.561C39.1631 31.3238 38.8688 30.9804 38.6913 30.5749C38.2641 29.7379 38.0543 28.4937 38.0543 26.7761C38.0543 24.938 38.2742 23.6275 38.7245 22.7699C38.9247 22.3472 39.2452 21.9931 39.6454 21.7519C40.0458 21.5105 40.5085 21.3927 40.9754 21.4132C41.2138 21.4159 41.451 21.4485 41.6813 21.5105C41.8208 21.5487 41.9583 21.5939 42.0932 21.6461V20.5172C41.9073 20.4426 41.7157 20.3835 41.5202 20.3405C41.2586 20.2789 40.9909 20.2463 40.7221 20.2432Z" fill="white"/>
  <path d="M40.52 33.4701C39.1413 33.4701 38.0977 32.8993 37.4123 31.7703C36.7267 30.6414 36.4045 28.9878 36.4045 26.7812C36.4045 24.5337 36.7676 22.8032 37.4788 21.6385C37.8047 21.0722 38.2792 20.606 38.8509 20.2901C39.4225 19.9743 40.0696 19.8209 40.7221 19.8465C41.0204 19.845 41.318 19.8758 41.6097 19.9387C41.8839 19.9989 42.1506 20.089 42.4051 20.2074L42.4896 20.2459V22.2451L42.2747 22.1377C42.0547 22.029 41.8242 21.9431 41.5866 21.8817C41.3886 21.8297 41.1851 21.8021 40.9804 21.7997C40.5851 21.7791 40.1926 21.8769 39.8531 22.0808C39.5138 22.2847 39.2427 22.5851 39.0748 22.9439C38.663 23.7349 38.4533 25.02 38.4533 26.7685C38.4533 28.399 38.6528 29.6175 39.0468 30.3905C39.1915 30.7313 39.4357 31.0202 39.7476 31.2193C40.0593 31.4184 40.424 31.5186 40.7937 31.5067C41.0295 31.5055 41.2634 31.4666 41.4869 31.3915C41.7543 31.2999 42.0115 31.1806 42.2542 31.0357L42.4767 30.9103V32.9582L42.3975 32.9991C41.8178 33.3147 41.1671 33.4768 40.5072 33.4701H40.52ZM40.7221 20.146C40.1202 20.1181 39.5224 20.2573 38.9947 20.5483C38.467 20.8392 38.03 21.2705 37.732 21.7946C37.0465 22.9107 36.7088 24.5874 36.7088 26.7812C36.7088 28.934 37.0337 30.5596 37.6731 31.6167C38.3126 32.674 39.2411 33.1732 40.5278 33.1732C40.8325 33.1741 41.1365 33.1388 41.4331 33.0682C41.6989 33.0005 41.9562 32.9035 42.2006 32.7789V31.4095C42.003 31.5129 41.7968 31.5985 41.5841 31.6654C41.3318 31.7504 41.0674 31.7937 40.8014 31.7934C40.3771 31.8045 39.9591 31.6885 39.6009 31.4606C39.2428 31.2325 38.9607 30.9027 38.7909 30.5134C38.374 29.6994 38.1642 28.4374 38.1642 26.7581C38.1642 24.9662 38.3842 23.63 38.8216 22.7954C39.0163 22.3905 39.3252 22.0513 39.7102 21.8199C40.0952 21.5883 40.5394 21.4745 40.9881 21.4925C41.2189 21.4944 41.4484 21.5263 41.6711 21.5872C41.8527 21.634 42.0299 21.6965 42.2006 21.7741V20.4379C41.9922 20.3469 41.7754 20.2766 41.5534 20.2279C41.2801 20.1704 41.0013 20.1429 40.7221 20.146Z" fill="white"/>
  <path d="M40.5175 33.7133C39.0493 33.7133 37.934 33.1015 37.1923 31.8959C36.4992 30.7541 36.1486 29.0339 36.1486 26.7761C36.1486 24.4722 36.5221 22.711 37.2588 21.5054C37.6064 20.9038 38.1114 20.4085 38.7194 20.0729C39.3274 19.7374 40.0155 19.574 40.7093 19.6009C41.025 19.5992 41.3399 19.6327 41.6481 19.7007C41.9397 19.7643 42.2237 19.8596 42.4947 19.9848L42.7198 20.0897V22.6496L42.1545 22.368C41.9505 22.2593 41.7353 22.1735 41.5125 22.112C41.335 22.063 41.1518 22.0372 40.9676 22.0353C40.6157 22.015 40.2661 22.1019 39.9647 22.2848C39.6633 22.4676 39.4244 22.7376 39.2795 23.0592C38.883 23.8272 38.6835 25.0636 38.6835 26.771C38.6835 28.3632 38.8753 29.5459 39.2488 30.2805C39.3738 30.5815 39.5879 30.837 39.8623 31.0127C40.1366 31.1884 40.458 31.276 40.7836 31.2635C40.9937 31.2623 41.2025 31.2286 41.4025 31.1637C41.6581 31.0766 41.9042 30.9633 42.1367 30.8258L42.7223 30.4905V33.1117L42.5126 33.2219C42.207 33.3871 41.8822 33.5144 41.5458 33.6007C41.2086 33.6784 40.8635 33.7163 40.5175 33.7133ZM40.7222 20.4021C40.1618 20.3761 39.6052 20.5058 39.114 20.7769C38.6229 21.0479 38.2163 21.4499 37.9391 21.938C37.2792 23.0157 36.9442 24.6514 36.9442 26.8017C36.9442 28.9085 37.2563 30.493 37.8752 31.5092C38.461 32.4795 39.328 32.9505 40.5175 32.9505C41.0115 32.956 41.5008 32.8519 41.9499 32.6458V31.8139C41.8475 31.8548 41.7478 31.8932 41.6506 31.9239C41.3738 32.0139 41.0848 32.0605 40.7937 32.0622C40.325 32.0718 39.864 31.9431 39.4678 31.6924C39.0717 31.4415 38.758 31.0796 38.5658 30.6517C38.131 29.8018 37.911 28.4989 37.911 26.7837C37.911 24.9483 38.1438 23.5763 38.5965 22.7085C38.8095 22.2617 39.1491 21.8876 39.573 21.6327C39.9968 21.3779 40.4864 21.2534 40.9805 21.275C41.2309 21.2771 41.4801 21.3106 41.7222 21.3748C41.799 21.3952 41.8731 21.4157 41.9499 21.4414V20.6273C41.8009 20.5705 41.6478 20.5252 41.492 20.4917C41.2399 20.43 40.9817 20.3965 40.7222 20.3919V20.4021Z" fill="#E1AB4C"/>
  <path d="M45.2725 33.1629V20.169H47.0247V25.107H50.1555V20.169H51.9051V33.1629H50.1555V26.7454H47.0247V33.1629H45.2725Z" fill="#E1AB4C"/>
  <path d="M52.1505 33.4061H49.9099V26.9886H47.2676V33.4061H45.0295V19.9234H47.2676V24.8638H49.9099V19.9234H52.1505V33.4061ZM50.3984 32.9172H51.6619V20.4123H50.3984V25.3528H46.779V20.4123H45.5154V32.9172H46.779V26.4996H50.3984V32.9172Z" fill="white"/>
  <path d="M52.0534 33.3088H50.0072V26.8938H47.1731V33.3088H45.1268V20.0205H47.1731V24.9586H50.0072V20.0205H52.0534V33.3088ZM50.3013 33.0145H51.7592V20.3201H50.3013V25.2581H46.8763V20.3201H45.4285V33.017H46.884V26.5969H50.3089L50.3013 33.0145Z" fill="white"/>
  <path d="M52.2989 33.5546H49.7616V27.137H47.416V33.5546H44.8812V19.7749H47.416V24.7153H49.7616V19.7749H52.2989V33.5546ZM50.5443 32.7687H51.5111V20.5608H50.5443V25.5012H46.6307V20.5608H45.6639V32.7687H46.6307V26.3537H50.5443V32.7687Z" fill="#E1AB4C"/>
  <path d="M54.5806 33.1629L57.6219 20.169H59.2666L62.3103 33.1629H60.5403L59.9189 30.603H56.9542L56.3506 33.1629H54.5806ZM58.4481 23.5224L57.274 29.1541H59.6144L58.4481 23.5224Z" fill="#E1AB4C"/>
  <path d="M62.6148 33.4061H60.346L59.7244 30.8463H57.1486L56.5424 33.4061H54.2711L57.4274 19.9234H59.4737L62.6148 33.4061ZM60.7296 32.9172H62.0085L59.0797 20.4123H57.8213L54.8926 32.9172H56.1715L56.7751 30.3574H60.1234L60.7296 32.9172ZM59.9137 29.3923H56.9747L58.448 22.3245L59.9137 29.3923ZM57.5758 28.9034H59.3126L58.448 24.7231L57.5758 28.9034Z" fill="white"/>
  <path d="M62.4946 33.3088H60.4227L59.7985 30.749H57.0719L56.4657 33.3088H54.3939L57.5042 20.0205H59.3842L59.4098 20.1358L62.4946 33.3088ZM60.6555 33.0145H62.1211L59.1489 20.3201H57.7395L54.7673 33.017H56.2329L56.8365 30.4572H60.0314L60.6555 33.0145ZM59.796 29.295H57.0923L58.448 22.7981L59.796 29.295ZM57.4505 29.0005H59.4277L58.4429 24.2495L57.4505 29.0005Z" fill="white"/>
  <path d="M62.8015 33.5546H60.2437L59.6195 30.9947H57.2766L56.673 33.5546H54.0869L57.3124 19.7749H59.5786L62.8015 33.5546ZM60.8473 32.7687H61.8142L58.9571 20.5608H57.934L55.0768 32.7687H56.0412L56.6474 30.2089H60.2283L60.8473 32.7687ZM60.0953 29.5356H56.7931L58.4506 21.6L60.0953 29.5356ZM57.7574 28.7677H59.131L58.4481 25.4398L57.7574 28.7677Z" fill="#E1AB4C"/>
  <path d="M64.9807 33.1629V20.169H66.7328V33.1629H64.9807Z" fill="#E1AB4C"/>
  <path d="M66.976 33.4061H64.7378V19.9234H66.976V33.4061ZM65.2239 32.9172H66.4874V20.4123H65.2239V32.9172Z" fill="white"/>
  <path d="M66.8812 33.3088H64.835V20.0205H66.8812V33.3088ZM65.124 33.0145H66.5795V20.3201H65.124V33.0145Z" fill="white"/>
  <path d="M67.1243 33.5546H64.5894V19.7749H67.1243V33.5546ZM65.3797 32.7687H66.3492V20.5608H65.3797V32.7687Z" fill="#E1AB4C"/>
  <path d="M70.429 33.1629V20.169H72.0481L75.4885 29.1925V20.169H77.1459V33.1629H75.5012L72.0788 24.0652V33.1629H70.429Z" fill="#E1AB4C"/>
  <path d="M77.4017 33.4061H75.3425L72.332 25.4092V33.4061H70.1885V19.9234H72.2194L75.2504 27.8589V19.9234H77.4017V33.4061ZM75.6802 32.9172H76.9131V20.4123H75.7391V30.5187L71.8843 20.4123H70.677V32.9172H71.8434V22.7239L75.6802 32.9172Z" fill="white"/>
  <path d="M77.2994 33.3088H75.4039L75.3681 33.2141L72.2297 24.8793V33.3088H70.2806V20.0205H72.1504L72.1862 20.1153L75.34 28.3888V20.0205H77.2994V33.3088ZM75.6112 33.0145H77.0052V20.3201H75.6368V29.9964L71.9458 20.3201H70.5773V33.017H71.9355V23.2537L75.6112 33.0145Z" fill="white"/>
  <path d="M77.5423 33.5546H75.2403L75.1456 33.2986L72.4804 26.2206V33.5546H70.0427V19.7749H72.3218L75.0997 27.0654V19.7749H77.545L77.5423 33.5546ZM75.7774 32.7687H76.7597V20.5608H75.8798V31.3122L71.7873 20.5608H70.8305V32.7687H71.7003V21.9123L75.7774 32.7687Z" fill="#E1AB4C"/>
  <path d="M18.3485 15.1492L18.4253 13.8974L14.2841 11.3145L10.1583 13.8974L10.3322 16.7157H21.4512L20.8066 27.3392H7.77691L7.50834 22.8979L7.42393 21.5283H10.6264L10.7082 22.8979L10.7849 24.1445H17.7986L18.0544 19.9105H7.32929L6.85608 12.1951L14.2841 7.54126L21.7274 12.1951L21.5484 15.1492H18.3485Z" fill="#E1AB4C"/>
  <path d="M21.1085 27.6593H7.47506L7.08627 21.2084H10.923L11.0816 23.8245H17.4967L17.7142 20.2408H7.02743L6.51587 12.0364L14.2739 7.1727L22.0471 12.0364L21.8374 15.4795H18.0006L18.0851 14.0766L14.2764 11.7011L10.4882 14.0664L10.6314 16.3959H21.7913L21.1085 27.6593ZM8.08384 27.0193H20.5047L21.111 17.0358H10.0304L9.82828 13.7259L14.2841 10.9357L18.7552 13.7259L18.6862 14.8292H21.244L21.3949 12.3667L14.2841 7.92018L7.18603 12.3667L7.62853 19.5931H18.3919L18.0978 24.4568H10.4857L10.3245 21.8561H7.76666L8.08384 27.0193Z" fill="#E1AB4C"/>
  <path d="M13.2354 0.29945L0.921911 8.03279C0.622409 8.22166 0.379148 8.48765 0.2176 8.80289C0.0560508 9.11814 -0.0178472 9.47105 0.003642 9.82469L1.36698 32.1517C1.39697 32.652 1.61675 33.122 1.98141 33.4656C2.34607 33.8091 2.82805 34.0002 3.32885 34H25.2803C25.7811 34.0002 26.2631 33.8091 26.6278 33.4656C26.9924 33.122 27.2122 32.652 27.2422 32.1517L28.6055 9.81956C28.6279 9.46524 28.5539 9.11148 28.3913 8.79595C28.2286 8.4804 27.9836 8.21489 27.6822 8.02767L15.3226 0.29945C15.0097 0.103759 14.6481 0 14.279 0C13.91 0 13.5483 0.103759 13.2354 0.29945ZM23.761 31.1073H4.82008C4.64329 31.1071 4.47324 31.0394 4.3445 30.9181C4.21575 30.797 4.13795 30.6312 4.1269 30.4546L2.91448 10.5926C2.90715 10.4678 2.93342 10.3433 2.99055 10.2321C3.04769 10.1209 3.1336 10.027 3.23932 9.96036L13.9158 3.26633C14.0259 3.19616 14.1537 3.15888 14.2841 3.15888C14.4146 3.15888 14.5424 3.19616 14.6525 3.26633L25.3366 9.95012C25.4425 10.0166 25.5285 10.1104 25.5858 10.2216C25.643 10.3329 25.669 10.4575 25.6614 10.5824L24.4541 30.4546C24.4431 30.6312 24.3653 30.797 24.2366 30.9181C24.1078 31.0394 23.9377 31.1071 23.761 31.1073Z" fill="#E1AB4C"/>
</svg>