<svg xmlns="http://www.w3.org/2000/svg" width="137" height="162" viewBox="0 0 137 162" fill="none">
  <path d="M87.7817 72.1812L88.1476 66.2169L68.4007 53.9102L48.727 66.2169L49.5564 79.6458H102.577L99.503 130.263H37.3716L36.0909 109.101L35.6884 102.576H50.9591L51.3494 109.101L51.7153 115.041H85.1594L86.3791 94.8676H35.2372L32.9807 58.1059L68.4007 35.9318L103.894 58.1059L103.04 72.1812H87.7817Z" fill="#FBBC49"/>
  <path d="M100.943 131.788H35.9334L34.0794 101.051H52.3749L53.1311 113.517H83.7211L84.7579 96.441H33.7989L31.3595 57.3497L68.3529 34.1754L105.42 57.3497L104.419 73.7546H86.1239L86.5264 67.0707L68.3651 55.7519L50.3014 67.0219L50.9844 78.1211H104.2L100.943 131.788ZM38.8362 128.739H98.0648L100.955 81.1704H48.1181L47.1546 65.3997L68.4017 52.105L89.722 65.3997L89.3927 70.6566H101.59L102.309 58.9231L68.4017 37.737L34.5551 58.9231L36.6652 93.3552H87.9901L86.5874 116.529H50.2892L49.5208 104.137H37.3238L38.8362 128.739Z" fill="#FBBC49"/>
  <path d="M63.401 1.42679L4.68478 38.2739C3.25661 39.1738 2.09665 40.4412 1.32631 41.9432C0.555972 43.4453 0.203593 45.1268 0.306063 46.8117L6.80705 153.194C6.95008 155.578 7.99813 157.817 9.73696 159.453C11.4758 161.09 13.7741 162.001 16.1621 162H120.837C123.225 162.001 125.523 161.09 127.262 159.453C129.001 157.817 130.049 155.578 130.192 153.194L136.693 46.7873C136.799 45.0991 136.446 43.4135 135.671 41.9101C134.895 40.4066 133.727 39.1415 132.29 38.2495L73.3538 1.42679C71.8614 0.494381 70.1371 0 68.3774 0C66.6177 0 64.8934 0.494381 63.401 1.42679ZM113.592 148.217H23.273C22.43 148.216 21.6191 147.894 21.0052 147.316C20.3913 146.738 20.0203 145.949 19.9676 145.107L14.1862 50.4708C14.1513 49.876 14.2765 49.2827 14.549 48.7528C14.8215 48.2229 15.2311 47.7758 15.7352 47.4582L66.6454 15.5631C67.1702 15.2287 67.7795 15.0511 68.4018 15.0511C69.024 15.0511 69.6334 15.2287 70.1582 15.5631L121.105 47.4094C121.61 47.7261 122.02 48.173 122.293 48.7031C122.566 49.2333 122.69 49.827 122.654 50.4221L116.897 145.107C116.844 145.949 116.473 146.738 115.859 147.316C115.245 147.894 114.435 148.216 113.592 148.217Z" fill="#FBBC49"/>
</svg>